REM DIRINDEX 1\8,1\2\11,1\3\12,1\3\14,1\5\15,1\5\16,1\6\17,1\6\18,1\4\19,1\4\20,1\4\21,1\4\22,1\7\23,1\7\24,1\7\25,1\2\9\26,1\2\9\27,1\2\10\28,1\2\10\29,1\2\10\30,1\2\10\31,1\2\10\32,1\3\13\33,1\3\13\34,1\3\13\35
REM DIRNAME cjc123,folder01,folder02,folder03,folder04,folder05,folder06,folder07,folder08,folder09,folder10,folder11,folder12,folder13,folder14,folder15,folder16,folder17,folder18,folder19,folder20,folder21,folder22,folder23,folder24,folder25,folder26,folder27,folder28,folder29,folder30,folder31,folder32,folder33,folder34
TITLE ""
FILE "99 099_UNIT4_SET4.mp3" MP3
  TRACK 01 AUDIO
    TITLE "14:cjc123_8275"
    INDEX 01 00:00:00
  TRACK 02 AUDIO
    TITLE "0:"
    INDEX 01 00:02:55
  TRACK 03 AUDIO
    TITLE "33:cjc123_8276"
    INDEX 01 00:03:39
  TRACK 04 AUDIO
    TITLE "0:"
    INDEX 01 00:04:56
  TRACK 05 AUDIO
    TITLE "34:cjc123_8277"
    INDEX 01 00:05:01
  TRACK 06 AUDIO
    TITLE "0:"
    INDEX 01 00:06:16
  TRACK 07 AUDIO
    TITLE "35:cjc123_8278"
    INDEX 01 00:06:67
  TRACK 08 AUDIO
    TITLE "0:"
    INDEX 01 00:10:02
  TRACK 09 AUDIO
    TITLE "33:cjc123_8279"
    INDEX 01 00:10:51
  TRACK 10 AUDIO
    TITLE "0:"
    INDEX 01 00:12:05
  TRACK 11 AUDIO
    TITLE "34:cjc123_8280"
    INDEX 01 00:12:36
  TRACK 12 AUDIO
    TITLE "0:"
    INDEX 01 00:13:73
  TRACK 13 AUDIO
    TITLE "35:cjc123_8281"
    INDEX 01 00:14:54
  TRACK 14 AUDIO
    TITLE "0:"
    INDEX 01 00:20:49
  TRACK 15 AUDIO
    TITLE "33:cjc123_8282"
    INDEX 01 00:21:33
  TRACK 16 AUDIO
    TITLE "0:"
    INDEX 01 00:22:46
  TRACK 17 AUDIO
    TITLE "34:cjc123_8283"
    INDEX 01 00:22:72
  TRACK 18 AUDIO
    TITLE "0:"
    INDEX 01 00:24:08
  TRACK 19 AUDIO
    TITLE "35:cjc123_8284"
    INDEX 01 00:24:55
  TRACK 20 AUDIO
    TITLE "0:"
    INDEX 01 00:30:14
  TRACK 21 AUDIO
    TITLE "33:cjc123_8285"
    INDEX 01 00:30:65
  TRACK 22 AUDIO
    TITLE "0:"
    INDEX 01 00:32:01
  TRACK 23 AUDIO
    TITLE "34:cjc123_8286"
    INDEX 01 00:32:25
  TRACK 24 AUDIO
    TITLE "0:"
    INDEX 01 00:33:28
  TRACK 25 AUDIO
    TITLE "35:cjc123_8287"
    INDEX 01 00:34:06
  TRACK 26 AUDIO
    TITLE "0:"
    INDEX 01 00:37:63
  TRACK 27 AUDIO
    TITLE "33:cjc123_8288"
    INDEX 01 00:38:35
  TRACK 28 AUDIO
    TITLE "0:"
    INDEX 01 00:39:54
  TRACK 29 AUDIO
    TITLE "34:cjc123_8289"
    INDEX 01 00:40:05
  TRACK 30 AUDIO
    TITLE "0:"
    INDEX 01 00:41:16
  TRACK 31 AUDIO
    TITLE "35:cjc123_8290"
    INDEX 01 00:41:69
  TRACK 32 AUDIO
    TITLE "0:"
    INDEX 01 00:46:35
  TRACK 33 AUDIO
    TITLE "33:cjc123_8291"
    INDEX 01 00:47:11
  TRACK 34 AUDIO
    TITLE "0:"
    INDEX 01 00:48:16
  TRACK 35 AUDIO
    TITLE "34:cjc123_8292"
    INDEX 01 00:48:42
  TRACK 36 AUDIO
    TITLE "0:"
    INDEX 01 00:49:41
  TRACK 37 AUDIO
    TITLE "35:cjc123_8293"
    INDEX 01 00:50:21
  TRACK 38 AUDIO
    TITLE "0:"
    INDEX 01 00:54:30
  TRACK 39 AUDIO
    TITLE "33:cjc123_8294"
    INDEX 01 00:55:06
  TRACK 40 AUDIO
    TITLE "0:"
    INDEX 01 00:56:27
  TRACK 41 AUDIO
    TITLE "34:cjc123_8295"
    INDEX 01 00:56:43
  TRACK 42 AUDIO
    TITLE "0:"
    INDEX 01 00:57:58
  TRACK 43 AUDIO
    TITLE "35:cjc123_8296"
    INDEX 01 00:58:36
  TRACK 44 AUDIO
    TITLE "0:"
    INDEX 01 01:03:65
  TRACK 45 AUDIO
    TITLE "33:cjc123_8297"
    INDEX 01 01:04:39
  TRACK 46 AUDIO
    TITLE "0:"
    INDEX 01 01:05:40
  TRACK 47 AUDIO
    TITLE "34:cjc123_8298"
    INDEX 01 01:05:58
  TRACK 48 AUDIO
    TITLE "0:"
    INDEX 01 01:06:55
  TRACK 49 AUDIO
    TITLE "35:cjc123_8299"
    INDEX 01 01:07:45
  TRACK 50 AUDIO
    TITLE "0:"
    INDEX 01 01:11:29
  TRACK 51 AUDIO
    TITLE "33:cjc123_8300"
    INDEX 01 01:12:09
  TRACK 52 AUDIO
    TITLE "0:"
    INDEX 01 01:13:32
  TRACK 53 AUDIO
    TITLE "34:cjc123_8301"
    INDEX 01 01:13:49
  TRACK 54 AUDIO
    TITLE "0:"
    INDEX 01 01:14:49
  TRACK 55 AUDIO
    TITLE "35:cjc123_8302"
    INDEX 01 01:15:23
  TRACK 56 AUDIO
    TITLE "0:"
    INDEX 01 01:19:32
  TRACK 57 AUDIO
    TITLE "33:cjc123_8303"
    INDEX 01 01:20:08
  TRACK 58 AUDIO
    TITLE "0:"
    INDEX 01 01:21:21
  TRACK 59 AUDIO
    TITLE "34:cjc123_8304"
    INDEX 01 01:21:47
  TRACK 60 AUDIO
    TITLE "0:"
    INDEX 01 01:22:58
  TRACK 61 AUDIO
    TITLE "35:cjc123_8305"
    INDEX 01 01:23:36
  TRACK 62 AUDIO
    TITLE "0:"
    INDEX 01 01:27:46
  TRACK 63 AUDIO
    TITLE "33:cjc123_8306"
    INDEX 01 01:28:39
  TRACK 64 AUDIO
    TITLE "0:"
    INDEX 01 01:29:64
  TRACK 65 AUDIO
    TITLE "34:cjc123_8307"
    INDEX 01 01:30:13
  TRACK 66 AUDIO
    TITLE "0:"
    INDEX 01 01:31:26
  TRACK 67 AUDIO
    TITLE "35:cjc123_8308"
    INDEX 01 01:31:71
  TRACK 68 AUDIO
    TITLE "0:"
    INDEX 01 01:36:17
  TRACK 69 AUDIO
    TITLE "33:cjc123_8309"
    INDEX 01 01:36:70
  TRACK 70 AUDIO
    TITLE "0:"
    INDEX 01 01:38:14
  TRACK 71 AUDIO
    TITLE "34:cjc123_8310"
    INDEX 01 01:38:36
  TRACK 72 AUDIO
    TITLE "0:"
    INDEX 01 01:39:43
  TRACK 73 AUDIO
    TITLE "35:cjc123_8311"
    INDEX 01 01:40:31
  TRACK 74 AUDIO
    TITLE "0:"
    INDEX 01 01:46:04
  TRACK 75 AUDIO
    TITLE "33:cjc123_8312"
    INDEX 01 01:46:51
  TRACK 76 AUDIO
    TITLE "0:"
    INDEX 01 01:47:58
  TRACK 77 AUDIO
    TITLE "34:cjc123_8313"
    INDEX 01 01:48:11
  TRACK 78 AUDIO
    TITLE "0:"
    INDEX 01 01:49:10
  TRACK 79 AUDIO
    TITLE "35:cjc123_8314"
    INDEX 01 01:49:63
  TRACK 80 AUDIO
    TITLE "0:"
    INDEX 01 01:54:31
  TRACK 81 AUDIO
    TITLE "33:cjc123_8315"
    INDEX 01 01:55:13
  TRACK 82 AUDIO
    TITLE "0:"
    INDEX 01 01:56:10
  TRACK 83 AUDIO
    TITLE "34:cjc123_8316"
    INDEX 01 01:56:41
  TRACK 84 AUDIO
    TITLE "0:"
    INDEX 01 01:57:57
  TRACK 85 AUDIO
    TITLE "35:cjc123_8317"
    INDEX 01 01:58:17
  TRACK 86 AUDIO
    TITLE "0:"
    INDEX 01 02:01:41
  TRACK 87 AUDIO
    TITLE "33:cjc123_8318"
    INDEX 01 02:02:26
  TRACK 88 AUDIO
    TITLE "0:"
    INDEX 01 02:03:38
  TRACK 89 AUDIO
    TITLE "34:cjc123_8319"
    INDEX 01 02:03:61
  TRACK 90 AUDIO
    TITLE "0:"
    INDEX 01 02:04:64
  TRACK 91 AUDIO
    TITLE "35:cjc123_8320"
    INDEX 01 02:05:38
  TRACK 92 AUDIO
    TITLE "0:"
    INDEX 01 02:09:38
